<svg xmlns="http://www.w3.org/2000/svg" viewBox="0 0 99.67 24.34"><path d="M37.27,5.44H31.75a.77.77,0,0,0-.76.65L28.76,20.23a.46.46,0,0,0,.45.53h2.63a.77.77,0,0,0,.76-.65l.6-3.81a.77.77,0,0,1,.76-.65h1.75c3.63,0,5.73-1.76,6.28-5.24a4.25,4.25,0,0,0-.7-3.56A5.12,5.12,0,0,0,37.27,5.44Zm.64,5.17c-.3,2-1.81,2-3.28,2H33.8l.58-3.7a.46.46,0,0,1,.45-.39h.38c1,0,1.94,0,2.42.57A1.84,1.84,0,0,1,37.9,10.61Z" transform="translate(0)" fill="#253b80"/><path d="M53.75,10.54H51.11a.46.46,0,0,0-.45.39l-.12.74-.18-.27a3.76,3.76,0,0,0-3.12-1.11,6.07,6.07,0,0,0-5.9,5.31,5,5,0,0,0,1,4.06A4.13,4.13,0,0,0,45.65,21a5.05,5.05,0,0,0,3.66-1.51l-.12.73a.46.46,0,0,0,.45.53H52a.77.77,0,0,0,.76-.65l1.43-9A.46.46,0,0,0,53.75,10.54Zm-3.68,5.14a2.94,2.94,0,0,1-3,2.52,2,2,0,0,1-2.19-2.57,3,3,0,0,1,3-2.54,2.23,2.23,0,0,1,1.76.72A2.29,2.29,0,0,1,50.07,15.68Z" transform="translate(0)" fill="#253b80"/><path d="M67.82,10.54H65.17a.77.77,0,0,0-.63.34l-3.66,5.39-1.55-5.18a.77.77,0,0,0-.74-.55H56a.46.46,0,0,0-.44.61l2.92,8.58-2.75,3.88a.46.46,0,0,0,.38.73h2.65a.76.76,0,0,0,.63-.33L68.2,11.27A.46.46,0,0,0,67.82,10.54Z" transform="translate(0)" fill="#253b80"/><path d="M76.61,5.44H71.09a.77.77,0,0,0-.76.65L68.1,20.23a.46.46,0,0,0,.45.53h2.83a.54.54,0,0,0,.53-.45l.63-4a.77.77,0,0,1,.76-.65h1.75c3.63,0,5.73-1.76,6.28-5.24a4.25,4.25,0,0,0-.7-3.56A5.11,5.11,0,0,0,76.61,5.44Zm.64,5.17c-.3,2-1.81,2-3.28,2h-.83l.58-3.7a.46.46,0,0,1,.45-.39h.38c1,0,1.94,0,2.42.57A1.84,1.84,0,0,1,77.24,10.61Z" transform="translate(0)" fill="#179bd7"/><path d="M93.09,10.54H90.45a.46.46,0,0,0-.45.39l-.12.74-.19-.27a3.76,3.76,0,0,0-3.12-1.11,6.07,6.07,0,0,0-5.9,5.31,5,5,0,0,0,1,4.06A4.13,4.13,0,0,0,85,21a5.05,5.05,0,0,0,3.66-1.51l-.12.73a.46.46,0,0,0,.45.53h2.38a.77.77,0,0,0,.76-.65l1.43-9A.46.46,0,0,0,93.09,10.54Zm-3.68,5.14a2.94,2.94,0,0,1-3,2.52,2,2,0,0,1-2.19-2.57,3,3,0,0,1,3-2.54,2.23,2.23,0,0,1,1.76.72A2.27,2.27,0,0,1,89.41,15.68Z" transform="translate(0)" fill="#179bd7"/><path d="M96.21,5.83l-2.26,14.4a.46.46,0,0,0,.45.53h2.28a.77.77,0,0,0,.76-.65L99.66,6a.46.46,0,0,0-.45-.53H96.66A.46.46,0,0,0,96.21,5.83Z" transform="translate(0)" fill="#179bd7"/><path d="M5.86,23.51l.42-2.68-.94,0H.86L4,1A.26.26,0,0,1,4.06.89.25.25,0,0,1,4.23.83h7.56c2.51,0,4.24.52,5.15,1.55a3.54,3.54,0,0,1,.82,1.55,5.58,5.58,0,0,1,0,2.13v.61l.42.24a3,3,0,0,1,.86.65,3,3,0,0,1,.7,1.56,6.61,6.61,0,0,1-.1,2.27A8,8,0,0,1,18.71,14a5.28,5.28,0,0,1-1.47,1.61,6,6,0,0,1-2,.89,9.89,9.89,0,0,1-2.48.29h-.59a1.77,1.77,0,0,0-1.75,1.49l0,.24-.75,4.72,0,.17a.15.15,0,0,1,0,.1.12.12,0,0,1-.08,0Z" transform="translate(0)" fill="#253b80"/><path d="M18.59,6.18h0q0,.22-.08.44c-1,5.12-4.41,6.89-8.77,6.89H7.52a1.08,1.08,0,0,0-1.07.91h0L5.32,21.64l-.32,2a.57.57,0,0,0,.56.66H9.49a1,1,0,0,0,.94-.8l0-.2.74-4.7,0-.26a1,1,0,0,1,.94-.8h.59c3.81,0,6.8-1.55,7.67-6,.36-1.87.18-3.43-.79-4.53A3.76,3.76,0,0,0,18.59,6.18Z" transform="translate(0)" fill="#179bd7"/><path d="M17.54,5.77l-.47-.12-.5-.09a12.33,12.33,0,0,0-2-.14H8.69a.95.95,0,0,0-.93.8l-1.26,8,0,.23a1.08,1.08,0,0,1,1.07-.91H9.74c4.36,0,7.77-1.77,8.77-6.89,0-.15.05-.3.08-.44a5.32,5.32,0,0,0-.82-.35Z" transform="translate(0)" fill="#222d65"/><path d="M7.75,6.21a.95.95,0,0,1,.93-.8h5.93a12.33,12.33,0,0,1,2,.14l.5.09.47.12.22.07a5.4,5.4,0,0,1,.82.35,4.84,4.84,0,0,0-1-4.35C16.43.55,14.4,0,11.79,0H4.23A1.08,1.08,0,0,0,3.16.91L0,20.89a.65.65,0,0,0,.64.75H5.32L6.49,14.2Z" transform="translate(0)" fill="#253b80"/></svg>