<?xml version="1.0" encoding="utf-8"?>
<!-- Generator: Adobe Illustrator 15.0.0, SVG Export Plug-In . SVG Version: 6.00 Build 0)  -->
<!DOCTYPE svg PUBLIC "-//W3C//DTD SVG 1.1//EN" "http://www.w3.org/Graphics/SVG/1.1/DTD/svg11.dtd">
<svg version="1.1" id="Layer_1" xmlns="http://www.w3.org/2000/svg" xmlns:xlink="http://www.w3.org/1999/xlink" x="0px" y="0px"
	 width="16px" height="16px" viewBox="0 0 16 16" enable-background="new 0 0 16 16" xml:space="preserve">
<path fill="#4D5A76" d="M15.529,2.619l-2.142-2.134c-0.615-0.633-1.627-0.648-2.261-0.033c-0.011,0.011-0.022,0.022-0.033,0.033
	l-9.312,9.32C1.592,10.001,1.452,10.24,1.373,10.5l-1.359,4.516c-0.073,0.269,0,0.557,0.192,0.759
	c0.16,0.16,0.383,0.239,0.607,0.216c0.072,0.01,0.145,0.01,0.216,0l4.516-1.319c0.261-0.079,0.499-0.219,0.695-0.408l9.288-9.352
	c0.634-0.615,0.649-1.627,0.034-2.26C15.552,2.641,15.54,2.63,15.529,2.619z M2.58,11.756l1.687,1.686l-2.398,0.695L2.58,11.756z"/>
</svg>
