<svg xmlns="http://www.w3.org/2000/svg" width="100" height="25" viewBox="0 0 100 25">
    <g fill="none" fill-rule="nonzero">
        <path fill="#253B80" d="M37.267 5.443h-5.515a.766.766 0 0 0-.758.647l-2.23 14.142a.46.46 0 0 0 .455.53h2.633a.766.766 0 0 0 .757-.647l.601-3.814a.765.765 0 0 1 .757-.648h1.746c3.633 0 5.73-1.758 6.277-5.242.247-1.524.01-2.721-.703-3.56-.784-.921-2.174-1.408-4.02-1.408zm.636 5.165c-.301 1.98-1.813 1.98-3.276 1.98h-.832l.584-3.697a.46.46 0 0 1 .454-.388h.382c.995 0 1.935 0 2.42.568.29.339.379.842.268 1.537zM53.753 10.544h-2.64a.46.46 0 0 0-.455.388l-.117.739-.185-.268c-.571-.83-1.846-1.107-3.119-1.107-2.918 0-5.411 2.21-5.897 5.311-.252 1.547.107 3.026.984 4.058.805.948 1.957 1.343 3.327 1.343 2.351 0 3.655-1.512 3.655-1.512l-.117.734a.46.46 0 0 0 .453.532h2.379a.766.766 0 0 0 .757-.647l1.428-9.04a.458.458 0 0 0-.453-.53zm-3.681 5.14c-.255 1.51-1.453 2.522-2.98 2.522-.767 0-1.38-.246-1.773-.712-.39-.463-.54-1.121-.415-1.855.238-1.496 1.456-2.542 2.96-2.542.75 0 1.36.249 1.761.72.402.474.562 1.137.447 1.868zM67.82 10.544h-2.655a.77.77 0 0 0-.634.337l-3.66 5.392-1.552-5.182a.769.769 0 0 0-.736-.547h-2.608a.46.46 0 0 0-.436.608l2.923 8.58-2.748 3.88a.46.46 0 0 0 .375.725h2.65a.765.765 0 0 0 .63-.329l8.828-12.742a.46.46 0 0 0-.378-.722z"/>
        <path fill="#179BD7" d="M76.606 5.443H71.09a.766.766 0 0 0-.756.647l-2.23 14.142a.459.459 0 0 0 .452.53h2.831a.536.536 0 0 0 .53-.452l.632-4.01a.765.765 0 0 1 .757-.647h1.745c3.634 0 5.73-1.758 6.278-5.242.248-1.524.01-2.721-.704-3.56-.783-.921-2.173-1.408-4.019-1.408zm.637 5.165c-.301 1.98-1.813 1.98-3.276 1.98h-.832l.585-3.697a.458.458 0 0 1 .453-.388h.382c.995 0 1.935 0 2.42.568.29.339.378.842.268 1.537zM93.092 10.544h-2.64a.457.457 0 0 0-.453.388l-.117.739-.185-.268c-.572-.83-1.846-1.107-3.119-1.107-2.918 0-5.41 2.21-5.896 5.311-.251 1.547.106 3.026.983 4.058.807.948 1.957 1.343 3.327 1.343 2.352 0 3.656-1.512 3.656-1.512l-.118.734a.46.46 0 0 0 .455.532h2.378a.766.766 0 0 0 .756-.647l1.429-9.04a.46.46 0 0 0-.456-.53zm-3.682 5.14c-.253 1.51-1.452 2.522-2.98 2.522-.765 0-1.38-.246-1.773-.712-.39-.463-.537-1.121-.414-1.855.24-1.496 1.455-2.542 2.96-2.542.75 0 1.36.249 1.76.72.405.474.564 1.137.447 1.868zM96.206 5.83l-2.264 14.402a.459.459 0 0 0 .453.53h2.276c.378 0 .7-.273.757-.647L99.66 5.973a.46.46 0 0 0-.453-.531H96.66a.46.46 0 0 0-.453.389z"/>
        <path fill="#253B80" d="M5.86 23.511l.421-2.679-.94-.022H.857L3.973 1.042a.255.255 0 0 1 .253-.216h7.565c2.511 0 4.244.522 5.15 1.554.424.484.694.99.824 1.546.137.584.14 1.281.006 2.132l-.01.062v.545l.424.24c.358.19.642.407.86.655.362.414.597.94.696 1.563.103.642.069 1.404-.1 2.268-.193.994-.506 1.859-.928 2.567a5.28 5.28 0 0 1-1.472 1.613 5.97 5.97 0 0 1-1.982.894c-.73.19-1.564.287-2.478.287h-.588c-.421 0-.83.151-1.151.423a1.782 1.782 0 0 0-.6 1.071l-.044.241-.746 4.722-.033.173c-.01.055-.025.083-.047.101a.125.125 0 0 1-.078.028H5.86z"/>
        <path fill="#179BD7" d="M18.587 6.183a13.23 13.23 0 0 1-.077.444c-.998 5.121-4.41 6.89-8.77 6.89H7.521c-.533 0-.982.388-1.065.914l-1.137 7.206-.321 2.043a.568.568 0 0 0 .56.656h3.936a.947.947 0 0 0 .936-.798l.039-.2.74-4.703.048-.258c.073-.462.47-.8.936-.8h.588c3.814 0 6.8-1.549 7.672-6.03.365-1.871.176-3.434-.788-4.533a3.764 3.764 0 0 0-1.078-.83z"/>
        <path fill="#222D65" d="M17.544 5.767a7.868 7.868 0 0 0-.97-.215 12.326 12.326 0 0 0-1.957-.143h-5.93a.941.941 0 0 0-.934.8l-1.261 7.989-.036.233a1.078 1.078 0 0 1 1.065-.913h2.22c4.358 0 7.771-1.77 8.769-6.891.03-.152.055-.3.077-.444a5.317 5.317 0 0 0-.82-.346 7.294 7.294 0 0 0-.223-.07z"/>
        <path fill="#253B80" d="M7.753 6.209a.943.943 0 0 1 .935-.8h5.929c.702 0 1.358.047 1.956.143a7.868 7.868 0 0 1 1.194.285c.295.098.568.213.82.346.298-1.893-.002-3.181-1.025-4.348C16.434.55 14.398 0 11.792 0H4.227c-.532 0-.986.387-1.068.914L.009 20.885a.65.65 0 0 0 .64.752h4.67l1.173-7.44L7.753 6.21z"/>
    </g>
</svg>
