<?xml version="1.0" encoding="utf-8"?>
<!-- Generator: Adobe Illustrator 15.0.0, SVG Export Plug-In . SVG Version: 6.00 Build 0)  -->
<!DOCTYPE svg PUBLIC "-//W3C//DTD SVG 1.1//EN" "http://www.w3.org/Graphics/SVG/1.1/DTD/svg11.dtd">
<svg version="1.1" id="Layer_1" xmlns="http://www.w3.org/2000/svg" xmlns:xlink="http://www.w3.org/1999/xlink" x="0px" y="0px"
	 width="16px" height="16px" viewBox="0 0 16 16" enable-background="new 0 0 16 16" xml:space="preserve">
<path fill="#4D5A76" d="M8.142,2.005V0.237C8.143,0.104,8.252-0.002,8.385,0c0.061,0.001,0.119,0.024,0.163,0.066l3.087,2.964
	c0.094,0.084,0.102,0.229,0.017,0.324c-0.005,0.006-0.012,0.012-0.017,0.018L8.548,6.336c-0.097,0.091-0.249,0.087-0.34-0.009
	C8.166,6.283,8.142,6.225,8.142,6.165V4.509H7.944C5.455,4.486,3.418,6.485,3.394,8.974c-0.024,2.489,1.975,4.526,4.464,4.55
	c2.49,0.023,4.527-1.976,4.55-4.464c0-0.014,0-0.028,0-0.043V8.258c0-0.275,0.222-0.499,0.497-0.502h1.49
	c0.275,0.003,0.497,0.227,0.497,0.502v0.753c0.025,3.834-3.062,6.963-6.896,6.988c-0.281,0.001-0.562-0.014-0.842-0.046
	c-3.835-0.535-6.512-4.078-5.977-7.913c0.474-3.398,3.337-5.955,6.767-6.042L8.142,2.005z"/>
</svg>
