<?xml version="1.0" encoding="utf-8"?>
<!-- Generator: Adobe Illustrator 15.0.0, SVG Export Plug-In . SVG Version: 6.00 Build 0)  -->
<!DOCTYPE svg PUBLIC "-//W3C//DTD SVG 1.1//EN" "http://www.w3.org/Graphics/SVG/1.1/DTD/svg11.dtd">
<svg version="1.1" id="Layer_1" xmlns="http://www.w3.org/2000/svg" xmlns:xlink="http://www.w3.org/1999/xlink" x="0px" y="0px"
	 width="16px" height="16px" viewBox="0 0 16 16" enable-background="new 0 0 16 16" xml:space="preserve">
<path fill="#FFFFFF" d="M10.273,8l5.296-5.296c0.605-0.65,0.569-1.667-0.08-2.272c-0.617-0.576-1.575-0.576-2.192,0l0,0L8,5.727
	L2.704,0.431c-0.649-0.605-1.667-0.57-2.272,0.08c-0.575,0.618-0.575,1.575,0,2.192l0,0L5.728,8l-5.296,5.296
	c-0.605,0.649-0.569,1.667,0.08,2.272c0.618,0.575,1.575,0.575,2.192,0L8,10.272l5.296,5.296c0.649,0.605,1.667,0.569,2.272-0.08
	c0.575-0.618,0.575-1.575,0-2.192L10.273,8z"/>
</svg>
