<?xml version="1.0" encoding="utf-8"?>
<!-- Generator: Adobe Illustrator 15.0.0, SVG Export Plug-In . SVG Version: 6.00 Build 0)  -->
<!DOCTYPE svg PUBLIC "-//W3C//DTD SVG 1.1//EN" "http://www.w3.org/Graphics/SVG/1.1/DTD/svg11.dtd">
<svg version="1.1" id="Layer_1" xmlns="http://www.w3.org/2000/svg" xmlns:xlink="http://www.w3.org/1999/xlink" x="0px" y="0px"
	 width="16px" height="15.987px" viewBox="0.445 595.14 16 15.987" enable-background="new 0.445 595.14 16 15.987"
	 xml:space="preserve">
<g>
	<path fill="#4D5A76" d="M13.72,601.162c-0.404-0.402-1.059-0.402-1.462,0c-0.397,0.379-0.412,1.01-0.033,1.406
		c0.011,0.01,0.022,0.021,0.033,0.033l1.26,1.234c1.185,1.17,1.198,3.078,0.028,4.264c-0.009,0.01-0.019,0.02-0.028,0.027
		c-1.215,1.178-3.147,1.178-4.363,0L7.871,606.9c-0.404-0.404-1.059-0.404-1.462,0c-0.397,0.379-0.412,1.008-0.033,1.404
		c0.011,0.01,0.022,0.021,0.033,0.033l1.252,1.26c2.006,2.008,5.259,2.01,7.267,0.004c0.002,0,0.003-0.002,0.005-0.004
		c1.966-1.896,2.022-5.025,0.126-6.992c-0.041-0.043-0.083-0.084-0.126-0.125L13.72,601.162z"/>
	<path fill="#4D5A76" d="M5.56,597.252c0.815-0.008,1.6,0.311,2.182,0.881l1.285,1.262c0.404,0.402,1.059,0.402,1.462,0
		c0.397-0.379,0.412-1.008,0.033-1.406c-0.011-0.012-0.021-0.021-0.033-0.033l-1.26-1.285c-2.006-2.008-5.259-2.01-7.267-0.004
		c-0.001,0.002-0.003,0.004-0.005,0.004c-1.965,1.896-2.022,5.027-0.126,6.992c0.042,0.043,0.083,0.086,0.126,0.127l1.261,1.26
		c0.385,0.398,1.02,0.406,1.417,0.021c0.007-0.006,0.014-0.014,0.021-0.021c0.397-0.379,0.412-1.008,0.033-1.404
		c-0.011-0.012-0.022-0.023-0.033-0.033l-1.252-1.236c-1.185-1.17-1.197-3.078-0.028-4.262c0.009-0.01,0.019-0.02,0.028-0.029
		C3.99,597.543,4.761,597.246,5.56,597.252z"/>
	<path fill="#4D5A76" d="M10.1,605.76c0.27,0,0.529-0.107,0.719-0.299c0.397-0.379,0.412-1.008,0.033-1.404
		c-0.011-0.012-0.021-0.023-0.033-0.033l-3.231-3.232c-0.404-0.404-1.059-0.404-1.462,0c-0.397,0.379-0.412,1.008-0.033,1.404
		c0.011,0.012,0.021,0.023,0.033,0.033l3.231,3.232C9.555,605.656,9.823,605.763,10.1,605.76z"/>
</g>
</svg>
